<?xml version="1.0" encoding="UTF-8" standalone="no"?>
<svg width="187px" height="25px" viewBox="0 0 187 25" version="1.1" xmlns="http://www.w3.org/2000/svg" xmlns:xlink="http://www.w3.org/1999/xlink" xmlns:sketch="http://www.bohemiancoding.com/sketch/ns">
    <!-- Generator: Sketch 3.3.3 (12081) - http://www.bohemiancoding.com/sketch -->
    <title>Slice 1</title>
    <desc>Created with Sketch.</desc>
    <defs></defs>
    <g id="Page-1" stroke="none" stroke-width="1" fill="none" fill-rule="evenodd" sketch:type="MSPage">
        <g id="propertyfinder" sketch:type="MSLayerGroup">
            <path d="M25.1130219,12.5555556 C25.1130219,19.4074074 19.4993042,25 12.6215706,25 C5.74383698,25 0.148707753,19.4814815 0.148707753,12.5555556 C0.148707753,5.7037037 5.76242545,0.111111111 12.640159,0.111111111 C19.5178926,0.111111111 25.1130219,5.7037037 25.1130219,12.5555556" id="Shape" fill="#E20031" sketch:type="MSShapeGroup"></path>
            <path d="M21.1536779,10.8148148 L12.9375746,4.51851852 C12.9375746,4.51851852 12.9375746,4.51851852 12.8632207,4.51851852 C12.8632207,4.51851852 12.8632207,4.51851852 12.7888668,4.51851852 C12.7888668,4.51851852 12.7888668,4.51851852 12.7145129,4.51851852 C12.7145129,4.51851852 12.7145129,4.51851852 12.640159,4.51851852 C12.640159,4.51851852 12.640159,4.51851852 12.5658052,4.51851852 C12.5658052,4.51851852 12.5658052,4.51851852 12.4914513,4.51851852 C12.4914513,4.51851852 12.4914513,4.51851852 12.4170974,4.51851852 C12.4170974,4.51851852 12.4170974,4.51851852 12.3427435,4.51851852 C12.3427435,4.51851852 12.3427435,4.51851852 12.2683897,4.51851852 C12.2683897,4.51851852 12.2683897,4.51851852 12.1940358,4.51851852 C12.1940358,4.51851852 12.1940358,4.51851852 12.1196819,4.51851852 C12.1196819,4.51851852 12.1196819,4.51851852 12.045328,4.51851852 L12.045328,4.51851852 L3.82922465,10.8148148 C3.58757455,11.0555556 3.51322068,11.4444444 3.66192843,11.6851852 C3.73628231,11.8518519 3.97793241,11.9259259 4.14522863,11.9259259 C4.31252485,11.9259259 4.38687873,11.9259259 4.4612326,11.7592593 L12.361332,5.77777778 L20.2614314,11.7592593 C20.3357853,11.8333333 20.5030815,11.9259259 20.5774354,11.9259259 C20.7447316,11.9259259 20.9677932,11.8518519 21.0607356,11.6851852 C21.4696819,11.4444444 21.4696819,11.0555556 21.1536779,10.8148148 L21.1536779,10.8148148 Z" id="Shape" fill="#FFFFFF" sketch:type="MSShapeGroup"></path>
            <path d="M6.30149105,11.9259259 L6.30149105,18.0740741 C6.30149105,18.9444444 6.93349901,19.5740741 7.73280318,19.5740741 L10.6511928,19.5740741 L10.6511928,13.4259259 L14.6848907,13.4259259 L14.6848907,19.5740741 L17.4545726,19.5740741 C18.2538767,19.5740741 18.8858847,18.8703704 18.8858847,18.0740741 L18.8858847,11.9259259 L12.5658052,7.03703704 L6.30149105,11.9259259 L6.30149105,11.9259259 Z" id="Shape" fill="#FFFFFF" sketch:type="MSShapeGroup"></path>
            <path d="M60.8214712,12.4814815 C60.8214712,16.2592593 58.1261431,18 55.4494036,18 C52.5310139,18 50.2260437,15.9444444 50.2260437,12.6481481 C50.2260437,9.25925926 52.4380716,7.12962963 55.5981113,7.12962963 C58.7767396,7.2037037 60.8214712,9.33333333 60.8214712,12.4814815 L60.8214712,12.4814815 Z M53.0143141,12.6296296 C53.0143141,14.5925926 53.962326,16.1666667 55.6166998,16.1666667 C57.1223658,16.1666667 58.1447316,14.6666667 58.1447316,12.6296296 C58.1447316,10.9814815 57.4383698,9.16666667 55.6166998,9.16666667 C53.7206759,9.09259259 53.0143141,10.9074074 53.0143141,12.6296296 L53.0143141,12.6296296 Z" id="Shape" fill="#2D383F" sketch:type="MSShapeGroup"></path>
            <path d="M84.5403579,10.7407407 C84.5403579,9.31481481 84.5403579,8.2962963 84.466004,7.42592593 L86.7523857,7.42592593 L86.8267396,9.38888889 L86.9010934,9.38888889 C87.3843936,7.88888889 88.6484095,7.18518519 89.7451292,7.18518519 C89.9867793,7.18518519 90.1354871,7.18518519 90.3771372,7.25925926 L90.3771372,9.38888889 L89.577833,9.38888889 C88.3138171,9.46296296 87.440159,10.4074074 87.1985089,11.5925926 C87.1241551,11.8333333 87.1241551,12.0740741 87.1241551,12.3888889 L87.1241551,17.7407407 L84.5217694,17.7407407 L84.5217694,10.7407407 L84.5403579,10.7407407 L84.5403579,10.7407407 Z" id="Shape" fill="#2D383F" sketch:type="MSShapeGroup"></path>
            <path d="M156.756561,10.7407407 C156.756561,9.31481481 156.756561,8.2962963 156.682207,7.42592593 L158.968588,7.42592593 L159.042942,9.38888889 L159.117296,9.38888889 C159.600596,7.88888889 160.864612,7.18518519 161.961332,7.18518519 C162.202982,7.18518519 162.35169,7.18518519 162.59334,7.25925926 L162.59334,9.38888889 L161.794036,9.38888889 C160.53002,9.46296296 159.656362,10.4074074 159.414712,11.5925926 C159.340358,11.8333333 159.340358,12.0740741 159.340358,12.3888889 L159.340358,17.7407407 L156.737972,17.7407407 L156.737972,10.7407407 L156.756561,10.7407407 L156.756561,10.7407407 Z" id="Shape" fill="#E20031" sketch:type="MSShapeGroup"></path>
            <path d="M44.0732604,10.7407407 C44.0732604,9.31481481 44.0732604,8.2962963 43.9989066,7.42592593 L46.2852883,7.42592593 L46.3596421,9.38888889 L46.433996,9.38888889 C46.9172962,7.88888889 48.1813121,7.18518519 49.2780318,7.18518519 C49.5196819,7.18518519 49.6683897,7.18518519 49.9100398,7.25925926 L49.9100398,9.38888889 L49.1107356,9.38888889 C47.8467197,9.46296296 46.9730616,10.4074074 46.7314115,11.5925926 C46.6570577,11.8333333 46.6570577,12.0740741 46.6570577,12.3888889 L46.6570577,17.7407407 L44.054672,17.7407407 L44.0732604,10.7407407 L44.0732604,10.7407407 Z" id="Shape" fill="#2D383F" sketch:type="MSShapeGroup"></path>
            <path d="M101.437276,7.44444444 L103.3333,13.037037 C103.57495,13.6666667 103.723658,14.462963 103.890954,15.0925926 L103.965308,15.0925926 C104.132604,14.462963 104.355666,13.7592593 104.522962,13.037037 L106.177336,7.51851852 L109.021372,7.51851852 L106.418986,14.6111111 C104.987674,18.462963 104.039662,20.2037037 102.775646,21.2962963 C101.75328,22.2407407 100.712326,22.5555556 100.005964,22.6296296 L99.3739563,20.4259259 C99.8572565,20.3518519 100.396322,20.1111111 100.879622,19.7222222 C101.362922,19.4074074 101.99493,18.7777778 102.310934,18.0740741 C102.385288,17.9074074 102.478231,17.7592593 102.478231,17.5925926 C102.478231,17.5185185 102.478231,17.3518519 102.310934,17.1111111 L98.5932406,7.42592593 L101.437276,7.42592593 L101.437276,7.44444444 L101.437276,7.44444444 Z" id="Shape" fill="#2D383F" sketch:type="MSShapeGroup"></path>
            <path d="M123.092843,10.5 C123.092843,9.31481481 123.092843,8.2962963 123.018489,7.42592593 L125.304871,7.42592593 L125.472167,9 L125.546521,9 C126.029821,8.2037037 127.126541,7.18518519 128.873857,7.18518519 C130.695527,7.18518519 132.591551,8.37037037 132.591551,11.6666667 L132.591551,17.8148148 L129.989165,17.8148148 L129.989165,11.9814815 C129.989165,10.4814815 129.431511,9.38888889 128.018787,9.38888889 C126.996421,9.38888889 126.271471,10.0925926 125.955467,10.8888889 C125.881113,11.1296296 125.881113,11.4444444 125.881113,11.7592593 L125.881113,17.8148148 L123.185785,17.8148148 L123.092843,10.5 L123.092843,10.5 Z" id="Shape" fill="#E20031" sketch:type="MSShapeGroup"></path>
            <path d="M68.182505,7.2037037 C66.6024851,7.2037037 65.4128231,7.83333333 64.6321074,9.01851852 L64.5577535,9.01851852 L64.3904573,7.44444444 L62.0854871,7.44444444 C62.159841,8.38888889 62.159841,9.57407407 62.159841,10.9074074 L62.159841,22 L64.7622266,22 L64.7622266,16.6481481 L64.8365805,16.6481481 C65.3942346,17.5185185 66.4909543,18.0740741 67.7549702,18.0740741 C70.1342942,18.0740741 72.4950298,16.2592593 72.4950298,12.4814815 C72.5136183,9.24074074 70.5432406,7.2037037 68.182505,7.2037037 L68.182505,7.2037037 Z M67.4575547,16.0185185 L67.4575547,16.0185185 C67.4575547,16.0185185 67.3832008,16.0185185 67.4575547,16.0185185 L67.2902584,16.0185185 C67.2902584,16.0185185 67.2902584,16.0185185 67.2159046,16.0185185 C65.6358847,15.9444444 64.7622266,14.5925926 64.7622266,12.6296296 C64.7622266,10.8148148 65.6358847,9.31481481 67.3646123,9.31481481 C69.09334,9.31481481 69.966998,10.8148148 69.966998,12.6296296 C69.9855865,14.5925926 69.0375746,15.9444444 67.4575547,16.0185185 L67.4575547,16.0185185 Z" id="Shape" fill="#2D383F" sketch:type="MSShapeGroup"></path>
            <path d="M144.265109,14.3703704 L144.265109,3.18518519 L141.662724,3.18518519 L141.662724,8.53703704 L141.58837,8.53703704 C141.030716,7.66666667 139.933996,7.11111111 138.66998,7.11111111 C136.290656,7.11111111 133.92992,8.92592593 133.92992,12.7037037 C133.92992,15.9259259 135.900298,17.9814815 138.279622,17.9814815 C139.859642,17.9814815 141.049304,17.3518519 141.83002,16.1666667 L141.904374,16.1666667 L142.07167,17.7407407 L144.358052,17.7407407 C144.339463,16.7962963 144.265109,15.7037037 144.265109,14.3703704 L144.265109,14.3703704 Z M139.060338,15.9444444 C137.405964,15.9444444 136.457952,14.4444444 136.457952,12.6296296 C136.457952,10.6666667 137.405964,9.24074074 138.985984,9.24074074 L138.985984,9.24074074 L139.060338,9.24074074 L139.134692,9.24074074 L139.209046,9.24074074 C140.789066,9.31481481 141.662724,10.6666667 141.662724,12.6296296 C141.662724,14.4444444 140.789066,15.9444444 139.060338,15.9444444 L139.060338,15.9444444 Z" id="Shape" fill="#E20031" sketch:type="MSShapeGroup"></path>
            <path d="M38.2364811,7.2037037 C36.6564612,7.2037037 35.4667992,7.83333333 34.6860835,9.01851852 L34.6117296,9.01851852 L34.4444334,7.44444444 L32.1580517,7.44444444 C32.2324056,8.38888889 32.2324056,9.57407407 32.2324056,10.9074074 L32.2324056,22 L34.8347913,22 L34.8347913,16.6481481 L34.9091451,16.6481481 C35.4667992,17.5185185 36.5635189,18.0740741 37.8275348,18.0740741 C40.2068588,18.0740741 42.5675944,16.2592593 42.5675944,12.4814815 C42.5675944,9.24074074 40.5972167,7.2037037 38.2364811,7.2037037 L38.2364811,7.2037037 Z M37.5115308,16.0185185 L37.5115308,16.0185185 C37.5115308,16.0185185 37.4371769,16.0185185 37.5115308,16.0185185 L37.3442346,16.0185185 C37.3442346,16.0185185 37.3442346,16.0185185 37.2698807,16.0185185 C35.6898608,15.9444444 34.8162028,14.5925926 34.8162028,12.6296296 C34.8162028,10.8148148 35.6898608,9.31481481 37.4185885,9.31481481 C39.0729622,9.31481481 40.0209742,10.8148148 40.0209742,12.6296296 C40.0395626,14.5925926 39.0915507,15.9444444 37.5115308,16.0185185 L37.5115308,16.0185185 Z" id="Shape" fill="#2D383F" sketch:type="MSShapeGroup"></path>
            <path d="M165.679026,16.4074074 C165.679026,17.2037037 165.121372,17.8333333 164.17336,17.8333333 C163.299702,17.8333333 162.742048,17.2037037 162.742048,16.4074074 C162.742048,15.6111111 163.374056,14.9814815 164.247714,14.9814815 C165.121372,15 165.679026,15.6296296 165.679026,16.4074074 L165.679026,16.4074074 Z" id="Shape" fill="#2D383F" sketch:type="MSShapeGroup"></path>
            <path d="M82.0866799,15.537037 C81.2873757,15.8518519 80.4323062,16.0185185 79.2426441,16.0185185 C77.5882704,16.0185185 76.0826044,15.2222222 76.0082505,13.3333333 L82.960338,13.3333333 C83.0346918,13.0925926 83.0346918,12.7037037 83.0346918,12.2222222 C83.0346918,9.94444444 81.9193837,7.18518519 78.5362823,7.18518519 C75.2089463,7.18518519 73.4802187,9.87037037 73.4802187,12.7777778 C73.4802187,15.9259259 75.4505964,18.0555556 78.8522863,18.0555556 C80.1163022,18.0555556 81.2316103,17.8148148 82.0866799,17.5740741 L82.0866799,15.537037 L82.0866799,15.537037 Z M78.3689861,9.01851852 C80.1163022,9.01851852 80.5810139,10.5925926 80.50666,11.537037 L75.9153082,11.537037 C76.0826044,10.4259259 76.7889662,9.01851852 78.3689861,9.01851852 L78.3689861,9.01851852 Z" id="Shape" fill="#2D383F" sketch:type="MSShapeGroup"></path>
            <path d="M113.928728,6.88888889 C113.928728,5.62962963 114.412028,4.51851852 115.676044,4.51851852 C116.066402,4.51851852 116.382406,4.59259259 116.624056,4.68518519 L116.624056,2.62962963 C116.233698,2.55555556 115.824751,2.46296296 115.285686,2.46296296 C114.412028,2.46296296 113.315308,2.77777778 112.590358,3.48148148 C111.7167,4.35185185 111.326342,5.68518519 111.326342,7.01851852 L111.326342,7.40740741 L110.37833,7.40740741 L109.579026,9.37037037 L111.326342,9.37037037 L111.326342,17.7962963 L113.928728,17.7962963 L113.928728,9.37037037 L116.215109,9.37037037 L116.215109,7.40740741 L113.928728,7.40740741 L113.928728,6.88888889 L113.928728,6.88888889 Z" id="Shape" fill="#E20031" sketch:type="MSShapeGroup"></path>
            <path d="M176.181511,15.3148148 L176.181511,11.537037 C176.181511,9.25925926 175.233499,7.2037037 171.906163,7.2037037 C170.642147,7.2037037 169.526839,7.44444444 168.746123,7.83333333 L168.746123,9.7962963 C169.452485,9.40740741 170.493439,9.09259259 171.441451,9.09259259 C173.263121,9.09259259 173.579125,10.2037037 173.579125,10.9074074 L173.579125,11.0740741 C169.712724,11.0740741 167.407753,12.4074074 167.407753,15.0185185 C167.407753,16.5925926 168.597416,18.0925926 170.642147,18.0925926 C171.980517,18.0925926 173.095825,17.537037 173.727833,16.6666667 L173.802187,16.6666667 L173.969483,17.8518519 L176.348807,17.8518519 C176.181511,17.1111111 176.181511,16.2592593 176.181511,15.3148148 L176.181511,15.3148148 Z M173.579125,14.1296296 C173.579125,14.2962963 173.579125,14.5185185 173.504771,14.6851852 C173.263121,15.3888889 172.482406,16.1111111 171.441451,16.1111111 C170.567793,16.1111111 169.935785,15.6296296 169.935785,14.6111111 C169.935785,13.037037 171.683101,12.6481481 173.579125,12.6481481 L173.579125,14.1296296 L173.579125,14.1296296 Z" id="Shape" fill="#2D383F" sketch:type="MSShapeGroup"></path>
            <path d="M185.90328,15.537037 C185.103976,15.8518519 184.248907,16.0185185 183.059245,16.0185185 C181.404871,16.0185185 179.899205,15.2222222 179.824851,13.3333333 L186.776938,13.3333333 C186.851292,13.0925926 186.851292,12.7037037 186.851292,12.2222222 C186.851292,9.94444444 185.735984,7.18518519 182.352883,7.18518519 C179.025547,7.18518519 177.296819,9.87037037 177.296819,12.7777778 C177.296819,15.9259259 179.267197,18.0555556 182.668887,18.0555556 C183.932903,18.0555556 185.048211,17.8148148 185.90328,17.5740741 L185.90328,15.537037 L185.90328,15.537037 Z M182.278529,9.01851852 C184.025845,9.01851852 184.490557,10.5925926 184.416203,11.537037 L179.824851,11.537037 C179.973559,10.4259259 180.605567,9.01851852 182.278529,9.01851852 L182.278529,9.01851852 Z" id="Shape" fill="#2D383F" sketch:type="MSShapeGroup"></path>
            <path d="M154.302883,15.537037 C153.503579,15.8518519 152.648509,16.0185185 151.458847,16.0185185 C149.804473,16.0185185 148.298807,15.2222222 148.224453,13.3333333 L155.176541,13.3333333 C155.250895,13.0925926 155.250895,12.7037037 155.250895,12.2222222 C155.250895,9.94444444 154.135586,7.18518519 150.752485,7.18518519 C147.425149,7.18518519 145.696421,9.87037037 145.696421,12.7777778 C145.696421,15.9259259 147.666799,18.0555556 151.068489,18.0555556 C152.332505,18.0555556 153.447813,17.8148148 154.302883,17.5740741 L154.302883,15.537037 L154.302883,15.537037 Z M150.585189,9.01851852 C152.332505,9.01851852 152.797217,10.5925926 152.722863,11.537037 L148.131511,11.537037 C148.298807,10.4259259 149.005169,9.01851852 150.585189,9.01851852 L150.585189,9.01851852 Z" id="Shape" fill="#E20031" sketch:type="MSShapeGroup"></path>
            <path d="M120.806461,4.51851852 C120.806461,5.31481481 120.248807,5.94444444 119.300795,5.94444444 C118.427137,5.94444444 117.869483,5.31481481 117.869483,4.51851852 C117.869483,3.72222222 118.501491,3.09259259 119.375149,3.09259259 C120.248807,3.11111111 120.806461,3.74074074 120.806461,4.51851852 L120.806461,4.51851852 Z M118.036779,17.8333333 L118.036779,7.44444444 L120.732107,7.44444444 L120.732107,17.8333333 L118.036779,17.8333333 L118.036779,17.8333333 Z" id="Shape" fill="#E20031" sketch:type="MSShapeGroup"></path>
            <path d="M95.3588469,4.44444444 L95.3588469,7.44444444 L97.2548708,7.44444444 L98.1285288,9.40740741 L95.4332008,9.40740741 L95.4332008,13.9814815 C95.4332008,15.2407407 95.7492048,15.8703704 96.7715706,15.8703704 C97.2548708,15.8703704 97.5708748,15.7962963 97.7939364,15.7037037 L97.8682903,17.7592593 C97.4779324,17.9259259 96.7529821,18 95.9722664,18 C95.0242545,18 94.1505964,17.6851852 93.6858847,17.1296296 C93.1282306,16.5 92.8865805,15.5555556 92.8865805,14.2222222 L92.8865805,9.33333333 L91.6411531,9.33333333 L91.6411531,7.44444444 L92.905169,7.44444444 L92.905169,5.07407407 L95.3588469,4.44444444 L95.3588469,4.44444444 Z" id="Shape" fill="#2D383F" sketch:type="MSShapeGroup"></path>
        </g>
    </g>
</svg>