<?xml version="1.0" encoding="UTF-8" standalone="no"?>
<svg width="15px" height="17px" viewBox="0 0 15 17" version="1.1" xmlns="http://www.w3.org/2000/svg" xmlns:xlink="http://www.w3.org/1999/xlink" xmlns:sketch="http://www.bohemiancoding.com/sketch/ns">
    <!-- Generator: Sketch 3.3.3 (12081) - http://www.bohemiancoding.com/sketch -->
    <title>Shape</title>
    <desc>Created with Sketch.</desc>
    <defs></defs>
    <g id="Page-1" stroke="none" stroke-width="1" fill="none" fill-rule="evenodd" sketch:type="MSPage">
        <path d="M15,14.1334635 C15,15.0188802 14.740767,15.7179905 14.2223011,16.2307943 C13.7038352,16.7435981 13.0149148,17 12.1555398,17 L2.84446023,17 C1.98508523,17 1.29616477,16.7435981 0.777698864,16.2307943 C0.259232955,15.7179905 0,15.0188802 0,14.1334635 C0,13.7424045 0.0124289773,13.3605686 0.0372869318,12.9879557 C0.0621448864,12.6153429 0.111860795,12.2132161 0.186434659,11.7815755 C0.261008523,11.3499349 0.355113636,10.9496528 0.46875,10.5807292 C0.582386364,10.2118056 0.735085227,9.85210503 0.926846591,9.5016276 C1.11860795,9.15115017 1.33877841,8.85232205 1.58735795,8.60514323 C1.8359375,8.35796441 2.13955966,8.16059028 2.49822443,8.01302083 C2.8568892,7.86545139 3.25284091,7.79166667 3.68607955,7.79166667 C3.75,7.79166667 3.89914773,7.87098524 4.13352273,8.0296224 C4.36789773,8.18825955 4.63245739,8.36534288 4.9272017,8.5608724 C5.22194602,8.75640191 5.60546875,8.93348524 6.07776989,9.0921224 C6.55007102,9.25075955 7.02414773,9.33007812 7.5,9.33007812 C7.97585227,9.33007812 8.44992898,9.25075955 8.92223011,9.0921224 C9.39453125,8.93348524 9.77805398,8.75640191 10.0727983,8.5608724 C10.3675426,8.36534288 10.6321023,8.18825955 10.8664773,8.0296224 C11.1008523,7.87098524 11.25,7.79166667 11.3139205,7.79166667 C11.7471591,7.79166667 12.1431108,7.86545139 12.5017756,8.01302083 C12.8604403,8.16059028 13.1640625,8.35796441 13.412642,8.60514323 C13.6612216,8.85232205 13.881392,9.15115017 14.0731534,9.5016276 C14.2649148,9.85210503 14.4176136,10.2118056 14.53125,10.5807292 C14.6448864,10.9496528 14.7389915,11.3499349 14.8135653,11.7815755 C14.8881392,12.2132161 14.9378551,12.6153429 14.9627131,12.9879557 C14.987571,13.3605686 15,13.7424045 15,14.1334635 L15,14.1334635 Z M11.5909091,4.25 C11.5909091,5.42317708 11.1914062,6.42480469 10.3924006,7.25488281 C9.59339489,8.08496094 8.62926136,8.5 7.5,8.5 C6.37073864,8.5 5.40660511,8.08496094 4.60759943,7.25488281 C3.80859375,6.42480469 3.40909091,5.42317708 3.40909091,4.25 C3.40909091,3.07682292 3.80859375,2.07519531 4.60759943,1.24511719 C5.40660511,0.415039062 6.37073864,0 7.5,0 C8.62926136,0 9.59339489,0.415039062 10.3924006,1.24511719 C11.1914062,2.07519531 11.5909091,3.07682292 11.5909091,4.25 L11.5909091,4.25 Z" id="Shape" fill="#FFFFFF" sketch:type="MSShapeGroup"></path>
    </g>
</svg>