<svg viewBox="0 0 100 100" xmlns="http://www.w3.org/2000/svg"><symbol viewBox="0 0 18 18" id="i-360"><title>360</title><path d="M17.727 1.523c-0.092-0.018-0.182 0.003-0.254 0.051c-0.071 0.048-0.124 0.123-0.143 0.213L16.843 4.3 c-0.01-0.019-0.011-0.04-0.022-0.059l-0.08-0.127c0.001 0 0.002-0.001 0.004-0.002c-0.011-0.016-0.023-0.029-0.034-0.045 l-0.046-0.073c-0.002 0.002-0.004 0.002-0.006 0.004C15.021 1.6 12.3 0 9.1 0C4.088 0 0 4 0 9s4.088 9 9.1 9 c3.201 0 6.012-1.644 7.638-4.116l0.001-0.002c0.002-0.003 0.005-0.006 0.007-0.009c0 0 0 0-0.001-0.001l0.12-0.191 c0.193-0.312 0.094-0.721-0.223-0.912c-0.315-0.191-0.729-0.093-0.922 0.219l-0.064 0.104c-1.376 2.146-3.797 3.576-6.556 3.6 c-4.28 0-7.763-3.439-7.763-7.667s3.482-7.667 7.763-7.667c2.724 0 5.1 1.4 6.5 3.497c0.001-0.001 0.002-0.001 0.002-0.002 l0.068 0.108c0.013 0 0 0 0 0.048l-2.476-0.471c-0.091-0.018-0.181 0.003-0.252 0.1 c-0.072 0.048-0.125 0.123-0.143 0.213c-0.035 0.2 0.1 0.4 0.3 0.391l3.817 0.726c0.146 0 0.286-0.066 0.314-0.21 l0.735-3.771C18.029 1.7 17.9 1.6 17.7 1.523z M4.567 11.202c-0.196 0-0.386-0.041-0.567-0.123 c-0.185-0.084-0.314-0.157-0.385-0.218c-0.073-0.062-0.133-0.12-0.177-0.173c-0.083-0.11-0.189-0.133-0.304-0.049l-0.211 0.2 c-0.046 0.035-0.073 0.076-0.077 0.123c-0.005 0.1 0 0.1 0.1 0.153c0.422 0.5 1 0.7 1.6 0.7 c0.546 0 0.99-0.149 1.32-0.445c0.331-0.298 0.499-0.678 0.499-1.132c0-0.317-0.105-0.594-0.312-0.826 C5.874 9.2 5.7 9.1 5.5 8.952c0.179-0.101 0.345-0.253 0.495-0.453c0.176-0.237 0.265-0.503 0.265-0.791 c0-0.449-0.159-0.814-0.472-1.086c-0.311-0.27-0.721-0.405-1.22-0.405c-0.261 0-0.52 0.06-0.767 0.2 C3.524 6.5 3.3 6.6 3.2 6.751L3.06 6.922c-0.051 0.05-0.076 0.103-0.074 0.154c0.002 0.1 0 0.1 0.1 0.1 l0.188 0.146c0.1 0.1 0.2 0.1 0.293-0.021c0.292-0.327 0.615-0.487 0.99-0.487c0.273 0 0.5 0.1 0.7 0.3 c0.188 0.2 0.3 0.4 0.3 0.678c0 0.254-0.099 0.46-0.302 0.629C5.004 8.6 4.7 8.7 4.3 8.67H3.879 c-0.145 0-0.229 0.086-0.229 0.234v0.188c0 0.1 0.1 0.2 0.2 0.233h0.443c0.447 0 0.8 0.1 1 0.3 c0.223 0.2 0.3 0.4 0.3 0.684c0 0.28-0.101 0.498-0.31 0.663C5.126 11.1 4.9 11.2 4.6 11.202z M8.673 7.5 c0.159-0.144 0.329-0.277 0.504-0.396C9.354 7 9.5 6.9 9.6 6.867c0.13-0.068 0.235-0.115 0.309-0.14 c0.096-0.028 0.16-0.073 0.188-0.133c0.025-0.053 0.023-0.112-0.006-0.179l-0.087-0.187c-0.048-0.105-0.12-0.127-0.172-0.127 c-0.026 0-0.054 0.006-0.083 0.018C9.596 6.2 9.4 6.3 9.2 6.392C9.007 6.5 8.8 6.6 8.5 6.8 c-0.258 0.196-0.487 0.416-0.679 0.65C7.649 7.7 7.5 8 7.3 8.382c-0.134 0.354-0.202 0.737-0.202 1.1 c0 0.7 0.2 1.2 0.5 1.646c0.32 0.4 0.8 0.6 1.4 0.643c0.49 0 0.919-0.184 1.275-0.546 c0.355-0.362 0.536-0.801 0.536-1.306c0-0.52-0.176-0.947-0.522-1.271C9.998 8.4 9.6 8.2 9.1 8.2 c-0.205 0-0.413 0.03-0.619 0.089C8.274 8.3 8.1 8.4 8 8.476L8.007 8.482c0.054-0.143 0.13-0.285 0.228-0.427 C8.369 7.9 8.5 7.7 8.7 7.55z M8.434 8.957c0.2-0.083 0.406-0.125 0.613-0.125c0.317 0 0.6 0.1 0.8 0.3 c0.22 0.2 0.3 0.5 0.3 0.819c0 0.322-0.11 0.603-0.328 0.834c-0.22 0.233-0.48 0.348-0.797 0.3 c-0.245 0-0.459-0.062-0.637-0.185c-0.179-0.122-0.31-0.277-0.39-0.461c-0.083-0.191-0.144-0.4-0.182-0.621 C7.809 9.7 7.8 9.5 7.9 9.312l0.134-0.111C8.082 9.1 8.2 9 8.4 8.957z M13.589 6.2 c-0.631 0-1.126 0.251-1.472 0.749c-0.341 0.489-0.514 1.179-0.514 2.048s0.173 1.6 0.5 2 c0.346 0.5 0.8 0.7 1.5 0.749s1.126-0.252 1.472-0.749c0.34-0.489 0.514-1.179 0.514-2.047c0-0.869-0.174-1.558-0.514-2.048 C14.715 6.5 14.2 6.2 13.6 6.217z M14.545 10.631c-0.225 0.368-0.537 0.548-0.956 0.548s-0.731-0.18-0.956-0.548 c-0.228-0.374-0.343-0.919-0.343-1.617c0-0.694 0.116-1.237 0.347-1.614c0.229-0.371 0.539-0.553 0.952-0.553 s0.724 0.2 1 0.553c0.23 0.4 0.3 0.9 0.3 1.614C14.888 9.7 14.8 10.3 14.5 10.631z"/></symbol><symbol viewBox="0 0 1792 1792" id="i-angle-down"><title>angle-down</title><path d="M1395 736q0 13-10 23l-466 466q-10 10-23 10t-23-10l-466-466q-10-10-10-23t10-23l50-50q10-10 23-10t23 10l393 393 393-393q10-10 23-10t23 10l50 50q10 10 10 23z"/></symbol><symbol viewBox="0 0 1792 1792" id="i-angle-left"><title>angle-left</title><path d="M1203 544q0 13-10 23l-393 393 393 393q10 10 10 23t-10 23l-50 50q-10 10-23 10t-23-10l-466-466q-10-10-10-23t10-23l466-466q10-10 23-10t23 10l50 50q10 10 10 23z"/></symbol><symbol viewBox="0 0 1792 1792" id="i-angle-right"><title>angle-right</title><path d="M1171 960q0 13-10 23l-466 466q-10 10-23 10t-23-10l-50-50q-10-10-10-23t10-23l393-393-393-393q-10-10-10-23t10-23l50-50q10-10 23-10t23 10l466 466q10 10 10 23z"/></symbol><symbol viewBox="0 0 1792 1792" id="i-angle-up"><title>angle-up</title><path d="M1395 1184q0 13-10 23l-50 50q-10 10-23 10t-23-10l-393-393-393 393q-10 10-23 10t-23-10l-50-50q-10-10-10-23t10-23l466-466q10-10 23-10t23 10l466 466q10 10 10 23z"/></symbol><symbol viewBox="0 0 384 448" id="i-ban"><title>ban</title><path d="M328 223.25q0-40.25-21.75-73.75l-188.5 188.25q34.25 22.25 74.25 22.25 27.75 0 52.875-10.875t43.375-29.125 29-43.625 10.75-53.125zM78.25 298l188.75-188.5q-33.75-22.75-75-22.75-37 0-68.25 18.25t-49.5 49.75-18.25 68.5q0 40.5 22.25 74.75zM384 223.25q0 39.25-15.25 75t-40.875 61.5-61.25 41-74.625 15.25-74.625-15.25-61.25-41-40.875-61.5-15.25-75 15.25-74.875 40.875-61.375 61.25-41 74.625-15.25 74.625 15.25 61.25 41 40.875 61.375 15.25 74.875z"/></symbol><symbol viewBox="0 0 512 448" id="i-bar-chart"><title>bar-chart</title><path d="M160 224v128h-64v-128h64zM256 96v256h-64v-256h64zM512 384v32h-512v-384h32v352h480zM352 160v192h-64v-192h64zM448 64v288h-64v-288h64z"/></symbol><symbol viewBox="0 0 26 26" id="i-bar-graph"><title>bar-graph</title><g><g><path d="M0.575 24.119C0.257 24.1 0 23.9 0 23.545V2.158C0 1.8 0.3 1.6 0.6 1.583c0.317 0 0.6 0.3 0.6 0.6 v21.387C1.149 23.9 0.9 24.1 0.6 24.119z"/></g><g><path d="M25.217 24.119H0.575C0.257 24.1 0 23.9 0 23.545c0-0.318 0.257-0.576 0.575-0.576h24.643 c0.317 0 0.6 0.3 0.6 0.576C25.792 23.9 25.5 24.1 25.2 24.119z"/></g><g><path d="M8.088 23.951c-0.317 0-0.574-0.258-0.574-0.574V6.335c0-0.225-0.069-0.372-0.111-0.428h-3.21 C4.15 6 4.1 6.1 4.1 6.335v17.042c0 0.316-0.257 0.574-0.574 0.574c-0.317 0-0.575-0.258-0.575-0.574V6.335 c0-0.884 0.527-1.577 1.2-1.577h3.332c0.672 0 1.2 0.7 1.2 1.577v17.042C8.663 23.7 8.4 24 8.1 23.951z"/></g><g><path d="M15.524 23.951c-0.317 0-0.575-0.258-0.575-0.574V12.016c0-0.225-0.068-0.372-0.111-0.428h-3.21 c-0.042 0.056-0.111 0.203-0.111 0.428v11.361c0 0.316-0.257 0.574-0.574 0.574s-0.574-0.258-0.574-0.574V12.016 c0-0.884 0.526-1.577 1.199-1.577h3.332c0.673 0 1.2 0.7 1.2 1.577v11.361C16.097 23.7 15.8 24 15.5 23.951z"/></g><g><path d="M22.958 23.965c-0.317 0-0.574-0.258-0.574-0.574V5.68c0-0.225-0.069-0.372-0.111-0.428h-3.21 c-0.042 0.056-0.111 0.203-0.111 0.428v17.711c0 0.316-0.257 0.574-0.575 0.574c-0.315 0-0.574-0.258-0.574-0.574V5.68 c0-0.884 0.527-1.577 1.199-1.577h3.333c0.672 0 1.2 0.7 1.2 1.577v17.711C23.533 23.7 23.3 24 23 23.965z"/></g></g></symbol><symbol viewBox="0 0 1792 1792" id="i-bars"><title>bars</title><path d="M1664 1344v128q0 26-19 45t-45 19h-1408q-26 0-45-19t-19-45v-128q0-26 19-45t45-19h1408q26 0 45 19t19 45zm0-512v128q0 26-19 45t-45 19h-1408q-26 0-45-19t-19-45v-128q0-26 19-45t45-19h1408q26 0 45 19t19 45zm0-512v128q0 26-19 45t-45 19h-1408q-26 0-45-19t-19-45v-128q0-26 19-45t45-19h1408q26 0 45 19t19 45z"/></symbol><symbol viewBox="0 0 70.098 53.605" id="i-bath"><title>bath</title><g><path fill="#39434E" d="M65.527 13.563V6.726C65.527 3 62.8 0 59.4 0s-6.165 3.018-6.165 6.7 c0 1 0.8 1.8 1.8 1.75s1.75-0.783 1.75-1.75c0-1.748 1.221-3.226 2.665-3.226c1.445 0 2.7 1.5 2.7 3.226v6.836H4.597 C2.062 13.6 0 15.7 0 18.235v0.488c0 2.6 2.1 4.7 4.6 4.674h60.904c2.534 0 4.597-2.096 4.597-4.674v-0.488 C70.098 15.7 68 13.6 65.5 13.563z M66.598 18.724c0 0.637-0.502 1.175-1.097 1.175h-7.272H4.597 c-0.595 0-1.097-0.538-1.097-1.175v-0.488c0-0.637 0.502-1.174 1.097-1.174h60.904c0.595 0 1.1 0.5 1.1 1.174V18.724z"/><path fill="#39434E" d="M11.004 47.376l-2.282 3.59c-0.491 0.832-0.214 1.9 0.6 2.395c0.279 0.2 0.6 0.2 0.9 0.2 c0.599 0 1.182-0.309 1.509-0.861l2.282-3.59c0.054-0.092 0.095-0.188 0.131-0.283c-1.084-0.43-2.118-0.953-3.102-1.555 C11.035 47.3 11 47.4 11 47.376z"/><path fill="#39434E" d="M59.095 47.376c-0.013-0.021-0.03-0.039-0.044-0.061c-0.984 0.602-2.018 1.125-3.102 1.6 c0.035 0.1 0.1 0.2 0.1 0.283l2.281 3.59c0.326 0.6 0.9 0.9 1.5 0.861c0.303 0 0.609-0.078 0.888-0.244 c0.833-0.49 1.11-1.562 0.618-2.395L59.095 47.376z"/><path fill="#39434E" d="M61.776 30.048c0 7.307-5.943 13.25-13.25 13.25H21.572c-7.306 0-13.25-5.943-13.25-13.25V26.46h-3.5v3.588 c0 9.2 7.5 16.8 16.8 16.75h26.954c9.236 0 16.75-7.514 16.75-16.75V26.46h-3.5V30.048z"/></g></symbol><symbol viewBox="0 0 70.098 53.605" id="i-bed"><title>bed</title><g><path fill="#39434E" d="M68.496 31.402c0-3.722-3.028-6.75-6.75-6.75H8.351c-3.722 0-6.75 3.028-6.75 6.75l0.003 12.914h66.894 L68.496 31.402z M5.116 40.785l-0.015-9.383c0-1.793 1.458-3.25 3.25-3.25h53.395c1.791 0 3.2 1.5 3.2 3.25v9.383H5.116z"/><rect x="5.2" y="47.8" fill="#39434E" width="7.3" height="3.5"/><rect x="57.6" y="47.8" fill="#39434E" width="7.3" height="3.5"/></g><g><path fill="#39434E" d="M8.886 21.652V11.061c0-2.895 2.354-5.25 5.25-5.25h41.829c2.896 0 5.2 2.4 5.2 5.25v10.592h0.218 c1.151 0 2.3 0.2 3.3 0.564V11.061c0-4.824-3.925-8.75-8.75-8.75H14.136c-4.825 0-8.75 3.926-8.75 8.75v11.153 c1.027-0.357 2.128-0.562 3.277-0.562H8.886z"/><path fill="#39434E" d="M17.612 14.635c0-0.679 0.572-1.25 1.25-1.25h9.111c0.678 0 1.2 0.6 1.2 1.25v7.018h3.5v-7.018 c0-2.619-2.131-4.75-4.75-4.75h-9.111c-2.619 0-4.75 2.131-4.75 4.75v7.018h3.5V14.635z"/><path fill="#39434E" d="M40.875 14.635c0-0.679 0.572-1.25 1.25-1.25h9.111c0.678 0 1.2 0.6 1.2 1.25v7.018h3.5v-7.018 c0-2.619-2.131-4.75-4.75-4.75h-9.111c-2.619 0-4.75 2.131-4.75 4.75v7.018h3.5V14.635z"/></g></symbol><symbol viewBox="4.58 -3.666 60.938 60.938" id="i-building"><title>building</title><g><path fill="#101211" d="M51.626 57.271H18.472V-3.666h33.154V57.271z M21.065 54.677h27.968V-1.073H21.065V54.677z"/><path fill="#101211" d="M21.065 57.271H4.58V6.706h16.485V57.271z M7.174 54.677h11.298V9.299H7.174V54.677z"/><path fill="#101211" d="M65.518 57.271H49.033V6.706h16.484V57.271z M51.626 54.677h11.299V9.299H51.626V54.677z"/><path fill="#101211" d="M44.616 57.271H26.465v-9.076h18.151V57.271z M29.058 54.677h12.965v-3.89H29.058V54.677z"/><g><rect x="43" y="2.8" fill="#101211" width="2.6" height="7.8"/><rect x="33.8" y="2.8" fill="#101211" width="2.6" height="7.8"/><rect x="24.5" y="2.8" fill="#101211" width="2.6" height="7.8"/></g><g><rect x="43" y="17.1" fill="#101211" width="2.6" height="7.8"/><rect x="33.8" y="17.1" fill="#101211" width="2.6" height="7.8"/><rect x="24.5" y="17.1" fill="#101211" width="2.6" height="7.8"/></g><g><rect x="43" y="31.4" fill="#101211" width="2.6" height="7.8"/><rect x="33.8" y="31.4" fill="#101211" width="2.6" height="7.8"/><rect x="24.5" y="31.4" fill="#101211" width="2.6" height="7.8"/></g><rect x="56" y="13.2" fill="#101211" width="2.6" height="6.5"/><rect x="56" y="26.2" fill="#101211" width="2.6" height="6.5"/><rect x="56" y="39.2" fill="#101211" width="2.6" height="6.5"/><rect x="11.5" y="13.2" fill="#101211" width="2.6" height="6.5"/><rect x="11.5" y="26.2" fill="#101211" width="2.6" height="6.5"/><rect x="11.5" y="39.2" fill="#101211" width="2.6" height="6.5"/></g></symbol><symbol viewBox="0 0 480 448" id="i-camera"><title>camera</title><path d="M240 184q29.75 0 50.875 21.125t21.125 50.875-21.125 50.875-50.875 21.125-50.875-21.125-21.125-50.875 21.125-50.875 50.875-21.125zM416 80q26.5 0 45.25 18.75t18.75 45.25v224q0 26.5-18.75 45.25t-45.25 18.75h-352q-26.5 0-45.25-18.75t-18.75-45.25v-224q0-26.5 18.75-45.25t45.25-18.75h56l12.75-34q4.75-12.25 17.375-21.125t25.875-8.875h128q13.25 0 25.875 8.875t17.375 21.125l12.75 34h56zM240 368q46.25 0 79.125-32.875t32.875-79.125-32.875-79.125-79.125-32.875-79.125 32.875-32.875 79.125 32.875 79.125 79.125 32.875z"/></symbol><symbol viewBox="0 0 1792 1792" id="i-check-square-o"><title>check-square-o</title><path d="M1472 930v318q0 119-84.5 203.5t-203.5 84.5h-832q-119 0-203.5-84.5t-84.5-203.5v-832q0-119 84.5-203.5t203.5-84.5h832q63 0 117 25 15 7 18 23 3 17-9 29l-49 49q-10 10-23 10-3 0-9-2-23-6-45-6h-832q-66 0-113 47t-47 113v832q0 66 47 113t113 47h832q66 0 113-47t47-113v-254q0-13 9-22l64-64q10-10 23-10 6 0 12 3 20 8 20 29zm231-489l-814 814q-24 24-57 24t-57-24l-430-430q-24-24-24-57t24-57l110-110q24-24 57-24t57 24l263 263 647-647q24-24 57-24t57 24l110 110q24 24 24 57t-24 57z"/></symbol><symbol viewBox="0 0 1792 1792" id="i-check"><title>check</title><path d="M1671 566q0 40-28 68l-724 724-136 136q-28 28-68 28t-68-28l-136-136-362-362q-28-28-28-68t28-68l136-136q28-28 68-28t68 28l294 295 656-657q28-28 68-28t68 28l136 136q28 28 28 68z"/></symbol><symbol viewBox="0 0 480 448" id="i-chevron-down"><title>chevron-down</title><path d="M469.143 147.578l-215.135 214.848q-5.509 5.509-13.046 5.509t-13.046-5.509l-215.138-214.843q-5.509-5.509-5.509-13.191t5.509-13.191l48.132-47.841q5.509-5.509 13.048-5.509t13.046 5.509l153.96 153.96 153.96-153.96q5.509-5.509 13.046-5.509t13.046 5.509l48.128 47.841q5.509 5.509 5.509 13.191t-5.509 13.191z"/></symbol><symbol viewBox="0 0 415 640" id="i-chevron-left"><title>chevron-left</title><path d="M394.324 122.227l-199.624 199.624 199.624 199.624q7.142 7.142 7.142 16.917t-7.142 16.917l-62.406 62.406q-7.142 7.143-16.917 7.143t-16.917-7.143l-278.947-278.947q-7.143-7.143-7.143-16.917t7.143-16.917l278.947-278.947q7.142-7.143 16.917-7.143t16.917 7.143l62.406 62.406q7.142 7.142 7.142 16.917t-7.142 16.917z"/></symbol><symbol viewBox="0 0 252 416" id="i-chevron-right"><title>chevron-right</title><path d="M242.125 218.446l-172.25 172.25q-4.411 4.411-10.446 4.411t-10.446-4.411l-38.536-38.536q-4.411-4.411-4.411-10.446t4.411-10.446l123.268-123.268-123.268-123.268q-4.411-4.411-4.411-10.446t4.411-10.446l38.536-38.536q4.411-4.411 10.446-4.411t10.446 4.411l172.25 172.25q4.411 4.411 4.411 10.446t-4.411 10.446z"/></symbol><symbol viewBox="0 0 480 448" id="i-chevron-up"><title>chevron-up</title><path d="M468.183 318.125l-48.13 47.841q-5.509 5.509-13.047 5.509t-13.047-5.509l-153.959-153.959-153.959 153.959q-5.509 5.509-13.047 5.509t-13.047-5.509l-48.13-47.841q-5.509-5.509-5.509-13.192t5.509-13.192l215.136-214.846q5.509-5.509 13.047-5.509t13.047 5.509l215.136 214.846q5.509 5.509 5.509 13.192t-5.509 13.192z"/></symbol><symbol viewBox="0 0 30 20" id="i-close"><title>close</title><rect transform="rotate(-45) translate(-14, 15)" x="5" y="1" width="25" height="3" rx="2" ry="2"/><rect transform="rotate(45) translate(0, -20)" x="5" y="15" width="25" height="3" rx="2" ry="2"/></symbol><symbol viewBox="0 0 480 448" id="i-cogs"><title>cogs</title><path d="M224 224q0-26.5-18.75-45.25t-45.25-18.75-45.25 18.75-18.75 45.25 18.75 45.25 45.25 18.75 45.25-18.75 18.75-45.25zM416 352q0-13-9.5-22.5t-22.5-9.5-22.5 9.5-9.5 22.5q0 13.25 9.375 22.625t22.625 9.375 22.625-9.375 9.375-22.625zM416 96q0-13-9.5-22.5t-22.5-9.5-22.5 9.5-9.5 22.5q0 13.25 9.375 22.625t22.625 9.375 22.625-9.375 9.375-22.625zM320 201.25v46.25q0 2.5-1.75 4.875t-4 2.625l-38.75 6q-2.75 8.75-8 19 8.5 12 22.5 28.75 1.75 2.5 1.75 5 0 3-1.75 4.75-5.75 7.5-20.625 22.375t-19.625 14.875q-2.75 0-5.25-1.75l-28.75-22.5q-9.25 4.75-19.25 7.75-2.75 27-5.75 38.75-1.75 6-7.5 6h-46.5q-2.75 0-5-1.875t-2.5-4.375l-5.75-38.25q-8.5-2.5-18.75-7.75l-29.5 22.25q-1.75 1.75-5 1.75-2.75 0-5.25-2-36-33.25-36-40 0-2.25 1.75-4.75 2.5-3.5 10.25-13.25t11.75-15.25q-5.75-11-8.75-20.5l-38-6q-2.5-0.25-4.25-2.375t-1.75-4.875v-46.25q0-2.5 1.75-4.875t4-2.625l38.75-6q2.75-8.75 8-19-8.5-12-22.5-28.75-1.75-2.75-1.75-5 0-3 1.75-5 5.5-7.5 20.5-22.25t19.75-14.75q2.75 0 5.25 1.75l28.75 22.5q8.5-4.5 19.25-8 2.75-27 5.75-38.5 1.75-6 7.5-6h46.5q2.75 0 5 1.875t2.5 4.375l5.75 38.25q8.5 2.5 18.75 7.75l29.5-22.25q2-1.75 5-1.75 2.75 0 5.25 2 36 33.25 36 40 0 2.25-1.75 4.75-3 4-10.5 13.5t-11.25 15q5.75 12 8.5 20.5l38 5.75q2.5 0.5 4.25 2.625t1.75 4.875zM480 334.5v35q0 4-37.25 7.75-3 6.75-7.5 13 12.75 28.25 12.75 34.5 0 1-1 1.75-30.5 17.75-31 17.75-2 0-11.5-11.75t-13-17q-5 0.5-7.5 0.5t-7.5-0.5q-3.5 5.25-13 17t-11.5 11.75q-0.5 0-31-17.75-1-0.75-1-1.75 0-6.25 12.75-34.5-4.5-6.25-7.5-13-37.25-3.75-37.25-7.75v-35q0-4 37.25-7.75 3.25-7.25 7.5-13-12.75-28.25-12.75-34.5 0-1 1-1.75 1-0.5 8.75-5t14.75-8.5 7.5-4q2 0 11.5 11.625t13 16.875q5-0.5 7.5-0.5t7.5 0.5q12.75-17.75 23-28l1.5-0.5q1 0 31 17.5 1 0.75 1 1.75 0 6.25-12.75 34.5 4.25 5.75 7.5 13 37.25 3.75 37.25 7.75zM480 78.5v35q0 4-37.25 7.75-3 6.75-7.5 13 12.75 28.25 12.75 34.5 0 1-1 1.75-30.5 17.75-31 17.75-2 0-11.5-11.75t-13-17q-5 0.5-7.5 0.5t-7.5-0.5q-3.5 5.25-13 17t-11.5 11.75q-0.5 0-31-17.75-1-0.75-1-1.75 0-6.25 12.75-34.5-4.5-6.25-7.5-13-37.25-3.75-37.25-7.75v-35q0-4 37.25-7.75 3.25-7.25 7.5-13-12.75-28.25-12.75-34.5 0-1 1-1.75 1-0.5 8.75-5t14.75-8.5 7.5-4q2 0 11.5 11.625t13 16.875q5-0.5 7.5-0.5t7.5 0.5q12.75-17.75 23-28l1.5-0.5q1 0 31 17.5 1 0.75 1 1.75 0 6.25-12.75 34.5 4.25 5.75 7.5 13 37.25 3.75 37.25 7.75z"/></symbol><symbol viewBox="0 0 448 448" id="i-comment-o"><title>comment-o</title><path d="M224 64.001q-51 0-95.375 17.375t-70.5 46.875-26.125 63.75q0 28 17.875 53.375t50.375 43.875l21.75 12.5-6.75 24q-6 22.75-17.5 43 38-15.75 68.75-42.75l10.75-9.5 14.25 1.5q17.25 2 32.5 2 51 0 95.375-17.375t70.5-46.875 26.125-63.75-26.125-63.75-70.5-46.875-95.375-17.375zM448 192q0 43.5-30 80.375t-81.5 58.25-112.5 21.375q-17.5 0-36.25-2-49.5 43.75-115 60.5-12.25 3.5-28.5 5.5h-1.25q-3.75 0-6.75-2.625t-4-6.875v-0.25q-0.75-1-0.125-3t0.5-2.5 1.125-2.375l1.5-2.25t1.75-2.125 2-2.25q1.75-2 7.75-8.625t8.625-9.5 7.75-9.875 8.125-12.75 6.75-14.75 6.5-19q-39.25-22.25-61.875-55t-22.625-70.25q0-43.5 30-80.375t81.5-58.25 112.5-21.375 112.5 21.375 81.5 58.25 30 80.375z"/></symbol><symbol viewBox="0 0 1792 1792" id="i-comments"><title>comments</title><path d="M1408 768q0 139-94 257t-256.5 186.5-353.5 68.5q-86 0-176-16-124 88-278 128-36 9-86 16h-3q-11 0-20.5-8t-11.5-21q-1-3-1-6.5t.5-6.5 2-6l2.5-5 3.5-5.5 4-5 4.5-5 4-4.5q5-6 23-25t26-29.5 22.5-29 25-38.5 20.5-44q-124-72-195-177t-71-224q0-139 94-257t256.5-186.5 353.5-68.5 353.5 68.5 256.5 186.5 94 257zm384 256q0 120-71 224.5t-195 176.5q10 24 20.5 44t25 38.5 22.5 29 26 29.5 23 25q1 1 4 4.5t4.5 5 4 5 3.5 5.5l2.5 5 2 6 .5 6.5-1 6.5q-3 14-13 22t-22 7q-50-7-86-16-154-40-278-128-90 16-176 16-271 0-472-132 58 4 88 4 161 0 309-45t264-129q125-92 192-212t67-254q0-77-23-152 129 71 204 178t75 230z"/></symbol><symbol viewBox="0 0 384 448" id="i-compress"><title>compress</title><path d="M192 240v112q0 6.5-4.75 11.25t-11.25 4.75-11.25-4.75l-36-36-83 83q-2.5 2.5-5.75 2.5t-5.75-2.5l-28.5-28.5q-2.5-2.5-2.5-5.75t2.5-5.75l83-83-36-36q-4.75-4.75-4.75-11.25t4.75-11.25 11.25-4.75h112q6.5 0 11.25 4.75t4.75 11.25zM380.75 72q0 3.25-2.5 5.75l-83 83 36 36q4.75 4.75 4.75 11.25t-4.75 11.25-11.25 4.75h-112q-6.5 0-11.25-4.75t-4.75-11.25v-112q0-6.5 4.75-11.25t11.25-4.75 11.25 4.75l36 36 83-83q2.5-2.5 5.75-2.5t5.75 2.5l28.5 28.5q2.5 2.5 2.5 5.75z"/></symbol><symbol viewBox="-200 1287.6 420.4 171.1" id="i-devices"><title>devices</title><path fill="#B7B7B7" d="M211.4,1287.6H12.8c-5,0-9,4-9,9v133.8c0,5,4,9,9,9h198.6c5,0,9-4,9-9v-133.8 C220.4,1291.6,216.4,1287.6,211.4,1287.6z"/><path fill="#B7B7B7" d="M134.2,1439.1l2.7,17.5c0.2,1.1-0.6,2-1.7,2H86.6c-1.1,0-1.8-0.9-1.7-2l2.7-17.5H134.2L134.2,1439.1z"/><path fill="#B7B7B7" d="M138.6,1455.6c2.3,0,3.9,3,2.8,3H80.5c-1.1,0,1.1-3,3-3S136.3,1455.6,138.6,1455.6z"/><path fill="#F7F7F7" d="M15.1,1304.4v98.5c0,3.8,3,6.9,6.7,6.9h180.7c3.7,0,6.7-3.1,6.7-6.9v-98.5c0-3.8-3-6.9-6.7-6.9H21.9 C18.2,1297.5,15.1,1300.6,15.1,1304.4z"/><path fill="#B7B7B7" d="M-21.8,1458.7c2.8,0,5.1-2.7,5.1-5.9v-151.3c0-3.2-2.3-5.9-5.1-5.9h-99l0,0c-2.8,0-5.1,2.7-5.1,5.9v151.3 c0,3.2,2.3,5.9,5.1,5.9"/><path fill="#F7F7F7" d="M-119.3,1311.4v132.5h96v-132.5H-119.3L-119.3,1311.4z"/><path fill="#F7F7F7" d="M-71.3,1305.4c0.5,0,1-0.6,1-1.1c0-0.7-0.5-1.1-1-1.1c-0.5,0-1,0.6-1,1.1C-72.3,1304.9-71.9,1305.4-71.3,1305.4 L-71.3,1305.4z"/><path fill="#B7B7B7" d="M-193.1,1359.6c-3.7,0-6.9,2.7-6.9,5.9v87.3c0,3.3,3,5.9,6.9,5.9h40c3.7,0,6.9-2.7,6.9-5.9v-87.2 c0-3.3-3-5.9-6.9-5.9L-193.1,1359.6L-193.1,1359.6z"/><path fill="#F7F7F7" d="M-196.7,1374.3v69.6h46.9v-69.6h-46.3H-196.7z"/><polyline fill="#F7F7F7" points="-180.4,1365.9 -165.8,1365.9 -165.8,1367.4 -180.4,1367.4 -180.4,1365.9 "/><circle fill="#F7F7F7" cx="112.2" cy="1425.9" r="5.4"/><ellipse fill="#F7F7F7" cx="-71.3" cy="1451" rx="4.3" ry="4.6"/><circle fill="#F7F7F7" cx="-173.2" cy="1451" r="4.6"/></symbol><symbol viewBox="0 0 448 448" id="i-envelope"><title>envelope</title><path d="M448 161.5v198.5q0 16.5-11.75 28.25t-28.25 11.75h-368q-16.5 0-28.25-11.75t-11.75-28.25v-198.5q11 12.25 25.25 21.75 90.5 61.5 124.25 86.25 14.25 10.5 23.125 16.375t23.625 12 27.5 6.125h0.5q12.75 0 27.5-6.125t23.625-12 23.125-16.375q42.5-30.75 124.5-86.25 14.25-9.75 25-21.75zM448 88q0 19.75-12.25 37.75t-30.5 30.75q-94 65.25-117 81.25-2.5 1.75-10.625 7.625t-13.5 9.5-13 8.125-14.375 6.75-12.5 2.25h-0.5q-5.75 0-12.5-2.25t-14.375-6.75-13-8.125-13.5-9.5-10.625-7.625q-22.75-16-65.5-45.625t-51.25-35.625q-15.5-10.5-29.25-28.875t-13.75-34.125q0-19.5 10.375-32.5t29.625-13h368q16.25 0 28.125 11.75t11.875 28.25z"/></symbol><symbol viewBox="0 0 384 448" id="i-expand"><title>expand</title><path d="M188.75 264q0 3.25-2.5 5.75l-83 83 36 36q4.75 4.75 4.75 11.25t-4.75 11.25-11.25 4.75h-112q-6.5 0-11.25-4.75t-4.75-11.25v-112q0-6.5 4.75-11.25t11.25-4.75 11.25 4.75l36 36 83-83q2.5-2.5 5.75-2.5t5.75 2.5l28.5 28.5q2.5 2.5 2.5 5.75zM384 48v112q0 6.5-4.75 11.25t-11.25 4.75-11.25-4.75l-36-36-83 83q-2.5 2.5-5.75 2.5t-5.75-2.5l-28.5-28.5q-2.5-2.5-2.5-5.75t2.5-5.75l83-83-36-36q-4.75-4.75-4.75-11.25t4.75-11.25 11.25-4.75h112q6.5 0 11.25 4.75t4.75 11.25z"/></symbol><symbol viewBox="0 0 384 448" id="i-facebook-square"><title>facebook-square</title><path d="M312 32q29.75 0 50.875 21.125t21.125 50.875v240q0 29.75-21.125 50.875t-50.875 21.125h-47v-148.75h49.75l7.5-58h-57.25v-37q0-14 5.875-21t22.875-7l30.5-0.25v-51.75q-15.75-2.25-44.5-2.25-34 0-54.375 20t-20.375 56.5v42.75h-50v58h50v148.75h-133q-29.75 0-50.875-21.125t-21.125-50.875v-240q0-29.75 21.125-50.875t50.875-21.125h240z"/></symbol><symbol viewBox="0 0 256 448" id="i-facebook"><title>facebook</title><path d="M239.75 19v66h-39.25q-21.5 0-29 9t-7.5 27v47.25h73.25l-9.75 74h-63.5v189.75h-76.5v-189.75h-63.75v-74h63.75v-54.5q0-46.5 26-72.125t69.25-25.625q36.75 0 57 3z"/></symbol><symbol viewBox="0 0 416 448" id="i-google-plus"><title>google-plus</title><path d="M183.75 215q0 9 8 17.625t19.375 17 22.625 18.375 19.25 26 8 35.5q0 22.5-12 43.25-18 30.5-52.75 44.875t-74.5 14.375q-33 0-61.625-10.375t-42.875-34.375q-9.25-15-9.25-32.75 0-20.25 11.125-37.5t29.625-28.75q32.75-20.5 101-25-8-10.5-11.875-18.5t-3.875-18.25q0-9 5.25-21.25-11.5 1-17 1-37 0-62.375-24.125t-25.375-61.125q0-20.5 9-39.75t24.75-32.75q19.25-16.5 45.625-24.5t54.375-8h104.5l-34.5 22h-32.75q18.5 15.75 28 33.25t9.5 40q0 18-6.125 32.375t-14.75 23.25-17.375 16.25-14.875 15.375-6.125 16.5zM147.25 191q9.5 0 19.5-4.125t16.5-10.875q13.25-14.25 13.25-39.75 0-14.5-4.25-31.25t-12.125-32.375-21.125-25.875-29.25-10.25q-10.5 0-20.625 4.875t-16.375 13.125q-11.75 14.75-11.75 40 0 11.5 2.5 24.375t7.875 25.75 13 23.125 18.75 16.75 24.125 6.5zM147.75 409.25q14.5 0 27.875-3.25t24.75-9.75 18.25-18.25 6.875-27.25q0-6.25-1.75-12.25t-3.625-10.5-6.75-10.375-7.375-8.75-9.625-8.625-9.125-7.25-10.375-7.5-9.125-6.5q-4-0.5-12-0.5-13.25 0-26.25 1.75t-26.875 6.25-24.25 11.5-17.125 18.625-6.75 26.375q0 17.5 8.75 30.875t22.875 20.75 29.75 11 31.875 3.625zM350.25 190.25h53.25v27h-53.25v54.75h-26.25v-54.75h-53v-27h53v-54.25h26.25v54.25z"/></symbol><symbol viewBox="0 0 1792 1792" id="i-heart"><title>heart</title><path d="M896 1664q-26 0-44-18l-624-602q-10-8-27.5-26t-55.5-65.5-68-97.5-53.5-121-23.5-138q0-220 127-344t351-124q62 0 126.5 21.5t120 58 95.5 68.5 76 68q36-36 76-68t95.5-68.5 120-58 126.5-21.5q224 0 351 124t127 344q0 221-229 450l-623 600q-18 18-44 18z"/></symbol><symbol viewBox="0 0 26 26" id="i-house-maintenance"><title>house-maintenance</title><path d="M21.408 23.165H10.384c-0.214 0-0.387-0.173-0.387-0.387s0.173-0.387 0.387-0.387h11.023c0.45 0 0.815-0.366 0.815-0.817 v-9.845c0-0.213 0.174-0.387 0.388-0.387h2.219c0.097-0.106 0.148-0.228 0.148-0.352c0-0.16-0.085-0.314-0.238-0.437l-9.562-7.607 c-0.373-0.297-1.004-0.297-1.377 0l-2.316 1.843c-0.167 0.133-0.411 0.105-0.544-0.062c-0.133-0.167-0.105-0.411 0.062-0.544 L13.32 2.34c0.656-0.521 1.684-0.522 2.3 0l9.561 7.607c0.338 0.3 0.5 0.6 0.5 1.043c0 0.394-0.193 0.773-0.531 1 c-0.068 0.054-0.153 0.084-0.24 0.084h-1.983v9.458C22.998 22.5 22.3 23.2 21.4 23.165z"/><path d="M16.832 18.594h-4.684c-0.466 0-0.846-0.379-0.846-0.845v-4.684c0-0.466 0.38-0.845 0.846-0.845h4.684 c0.466 0 0.8 0.4 0.8 0.845v4.684C17.676 18.2 17.3 18.6 16.8 18.594z M12.148 13 c-0.04 0-0.072 0.032-0.072 0.071v4.684c0 0 0 0.1 0.1 0.071h4.684c0.039 0 0.071-0.032 0.071-0.071v-4.684 c0-0.039-0.032-0.071-0.071-0.071H12.148z"/><path d="M8.026 23.165H3.511c-0.103 0-0.201-0.041-0.274-0.113c-0.072-0.072-0.113-0.171-0.113-0.273l0-9.519 c-1.715-0.85-2.771-2.431-2.771-4.183c0-1.863 1.238-3.572 3.152-4.354C3.625 4.7 3.8 4.7 3.9 4.8 c0.107 0.1 0.2 0.2 0.2 0.321v3.466c0 0.4 0.3 0.7 0.7 0.673l2.117-0.001c0.37 0 0.671-0.302 0.671-0.672V5.081 c0-0.129 0.064-0.25 0.171-0.321c0.107-0.072 0.243-0.085 0.362-0.037c1.915 0.8 3.2 2.5 3.2 4.4 c0 1.752-1.055 3.333-2.771 4.183l0 9.519c0 0.103-0.041 0.201-0.113 0.273C8.228 23.1 8.1 23.2 8 23.165z M3.898 22.392h3.741l0-9.378c0-0.153 0.09-0.292 0.23-0.354c1.567-0.692 2.54-2.065 2.541-3.583c0-1.37-0.822-2.647-2.137-3.381 v2.852c0 0.797-0.648 1.446-1.445 1.446l-2.117 0c-0.797 0-1.446-0.649-1.446-1.446V5.695C1.95 6.4 1.1 7.7 1.1 9.1 c0 1.5 1 2.9 2.5 3.582c0.141 0.1 0.2 0.2 0.2 0.354L3.898 22.392z"/></symbol><symbol viewBox="0 0 60 60" id="i-house-price"><title>house-price</title><g><g><path d="M38.564 48.714h-9.05v-8.989c0-0.768-0.621-1.39-1.387-1.39h-8.34c-0.766 0-1.386 0.622-1.386 1.39v8.989 H9.349V32.479L23.92 19.43l4.772 4.146c0.237-0.989 0.553-1.946 0.956-2.859l-4.809-4.182c-0.528-0.469-1.323-0.468-1.848 0 L7.037 30.826c-0.294 0.263-0.462 0.639-0.462 1.033V50.1c0 0.8 0.6 1.4 1.4 1.389h13.207l0.006-10.377h5.565 l0.005 10.377H39.95c0.767 0 1.388-0.62 1.388-1.389v-6.16c-0.956-0.217-1.888-0.504-2.773-0.879V48.714L38.564 48.714z"/><path d="M24.801 9.599c-0.523-0.455-1.3-0.452-1.821 0.002l-8.481 7.398v-2.958c0-0.766-0.621-1.387-1.387-1.387 H7.9c-0.766 0-1.387 0.622-1.387 1.387v9.924l-5.845 5.099c-0.577 0.503-0.637 1.379-0.133 2 c0.504 0.6 1.4 0.6 2 0.133l6.794-5.927v-9.798h2.438l-0.003 7.674l12.173-10.618l6.94 6 c0.498-0.787 1.061-1.526 1.678-2.218L24.801 9.599z"/></g><path d="M45.09 13.101c-7.953 0-14.4 6.446-14.4 14.399c0 8 6.4 14.4 14.4 14.4 c7.959 0 14.406-6.446 14.406-14.398C59.496 19.5 53 13.1 45.1 13.101z M45.09 39.125c-6.41 0-11.625-5.215-11.625-11.625 S38.68 15.9 45.1 15.875c6.415 0 11.6 5.2 11.6 11.625S51.505 39.1 45.1 39.125z"/><path d="M44.152 36.5l-0.002-2.098l-0.192-0.021c-2.792-0.283-4.924-1.488-5.524-3.102l2.338-0.571 c0.396 0.5 1.6 1.1 3.1 1.298l0.243 0.034v-3.674l-0.182-0.03c-2.169-0.348-3.393-0.874-3.929-1.157l-0.09-0.048 c-1.109-0.75-1.695-1.691-1.695-2.724c0.002-2.039 2.347-3.699 5.701-4.037l0.192-0.019v-2.047h2.347l0.001 2.061l0.188 0 c2.515 0.3 4.5 1.3 5.2 2.756l-2.271 0.801c-0.437-0.452-1.451-0.964-2.893-1.181l-0.246-0.037l0.001 3.834l0.176 0 c1.556 0.3 2.8 0.6 3.7 1.047c0.386 0.2 0.7 0.4 0.9 0.556c0.077 0.1 0.1 0.1 0.2 0.2 c0.514 0.6 0.8 1.2 0.8 1.932c0 1.995-2.278 3.649-5.543 4.021l-0.188 0.021L46.498 36.5H44.152z M46.498 32 l0.246-0.037c1.85-0.281 3.139-1.09 3.139-1.64c0.004-0.547-1.285-1.351-3.139-1.632l-0.246-0.037V32.018z M43.908 22.7 c-2.045 0.272-3.303 1.15-3.307 1.659c0 0.5 1.3 1.4 3.3 1.658l0.242 0.033v-3.383L43.908 22.744z"/></g></symbol><symbol viewBox="0 0 60 60" id="i-house-size"><title>house-size</title><g><path d="M59.496 28.283L36.637 8.45c-0.553-0.479-1.373-0.479-1.923 0.002l-8.555 7.462v-2.901 c0-0.809-0.655-1.464-1.464-1.464h-5.309c-0.809 0-1.464 0.655-1.464 1.464v10.085l-5.936 5.2 c-0.61 0.532-0.672 1.457-0.14 2.067c0.532 0.6 1.5 0.7 2.1 0.14l6.934-6.048l0.005-9.957h2.38l-0.002 7.879L35.68 11.5 l21.897 18.999c0.276 0.2 0.6 0.4 1 0.358c0.407 0 0.817-0.17 1.106-0.505C60.172 29.7 60.1 28.8 59.5 28.283z"/><path d="M1.713 10.51h10.494c0.694 0 1.255-0.561 1.255-1.255C13.462 8.6 12.9 8 12.2 8H1.713 C1.021 8 0.5 8.6 0.5 9.255C0.458 9.9 1 10.5 1.7 10.51z"/><path d="M12.207 48.422H1.713c-0.693 0-1.255 0.562-1.255 1.256s0.562 1.3 1.3 1.256h10.494 c0.694 0 1.255-0.562 1.255-1.256C13.462 49 12.9 48.4 12.2 48.422z"/><path d="M10.822 20.516c0.245 0.2 0.6 0.4 0.9 0.367c0.321 0 0.642-0.123 0.887-0.367 c0.49-0.491 0.49-1.286 0-1.775L7.686 13.83c-0.034-0.035-0.079-0.047-0.116-0.077c-0.051-0.04-0.105-0.076-0.164-0.108 c-0.101-0.058-0.203-0.098-0.312-0.125C7.063 13.5 7 13.5 7 13.5c-0.08-0.013-0.155-0.034-0.234-0.032 c-0.333-0.009-0.667 0.107-0.921 0.361L0.934 18.74c-0.49 0.49-0.49 1.3 0 1.775c0.245 0.2 0.6 0.4 0.9 0.4 c0.321 0 0.643-0.123 0.888-0.367l2.835-2.837v23.978l-2.835-2.838c-0.491-0.488-1.285-0.488-1.775 0 c-0.49 0.49-0.49 1.3 0 1.775l4.911 4.911c0.246 0.2 0.6 0.4 0.9 0.368c0.012 0 0.023-0.007 0.034-0.007 c0.011 0 0 0 0 0.007c0.238 0 0.466-0.091 0.674-0.225c0.017-0.013 0.034-0.023 0.051-0.034 c0.054-0.039 0.114-0.062 0.163-0.109l4.911-4.911c0.49-0.488 0.49-1.285 0-1.775c-0.491-0.488-1.285-0.488-1.775 0l-2.768 2.8 V17.746L10.822 20.516z"/><path d="M36.676 15.515c-0.558-0.496-1.396-0.494-1.951 0.003L18.472 30.072c-0.31 0.278-0.487 0.676-0.487 1.1 v18.582c0 0.8 0.7 1.5 1.5 1.464h13.509l0.002-10.57h5.565v10.57h13.508c0.809 0 1.465-0.654 1.465-1.464V31.145 c0-0.418-0.178-0.816-0.49-1.094L36.676 15.515z M50.57 48.281h-9.114v-9.108c0-0.808-0.656-1.463-1.464-1.463h-8.496 c-0.809 0-1.464 0.655-1.464 1.463v9.108h-9.117V31.818l14.789-13.248l14.866 13.23V48.281z"/></g></symbol><symbol viewBox="0 0 384 448" id="i-linkedin"><title>linkedin</title><path d="M87.25 156.25v247.75h-82.5v-247.75h82.5zM92.5 79.75q0.25 18.25-12.625 30.5t-33.875 12.25h-0.5q-20.5 0-33-12.25t-12.5-30.5q0-18.5 12.875-30.625t33.625-12.125 33.25 12.125 12.75 30.625zM384 262v142h-82.25v-132.5q0-26.25-10.125-41.125t-31.625-14.875q-15.75 0-26.375 8.625t-15.875 21.375q-2.75 7.5-2.75 20.25v138.25h-82.25q0.5-99.75 0.5-161.75t-0.25-74l-0.25-12h82.25v36h-0.5q5-8 10.25-14t14.125-13 21.75-10.875 28.625-3.875q42.75 0 68.75 28.375t26 83.125z"/></symbol><symbol viewBox="0 0 1792 1792" id="i-map-marker"><title>map-marker</title><path d="M1152 640q0-106-75-181t-181-75-181 75-75 181 75 181 181 75 181-75 75-181zm256 0q0 109-33 179l-364 774q-16 33-47.5 52t-67.5 19-67.5-19-46.5-52l-365-774q-33-70-33-179 0-212 150-362t362-150 362 150 150 362z"/></symbol><symbol viewBox="0 0 26 26" id="i-pen-paper"><title>pen-paper</title><g><g><path fill="#565F73" d="M17.475 23.951H1.551C0.696 24 0 23.3 0 22.399v-8.89c0-0.855 0.696-1.551 1.551-1.551h8.848 c0.29 0 0.5 0.2 0.5 0.526s-0.236 0.525-0.525 0.525H1.551c-0.275 0-0.5 0.225-0.5 0.5v8.89c0 0.3 0.2 0.5 0.5 0.5 h15.924c0.275 0 0.499-0.225 0.499-0.5v-6.961c0-0.291 0.235-0.526 0.526-0.526c0.29 0 0.5 0.2 0.5 0.526v6.961 C19.026 23.3 18.3 24 17.5 23.951z"/></g><g><g><path fill="#565F73" d="M19.212 12.733c-0.11 0-0.219-0.035-0.309-0.1l-4.506-3.264c-0.235-0.17-0.287-0.499-0.118-0.734 l3.816-5.269c0.532-0.735 1.391-1.173 2.3-1.173c0.6 0 1.2 0.2 1.7 0.54l0.763 0.552c1.267 0.9 1.6 2.7 0.6 4 l-3.817 5.269c-0.081 0.112-0.205 0.189-0.342 0.21C19.268 12.7 19.2 12.7 19.2 12.733z M15.44 8.826l3.655 2.6 l3.508-4.844C23.18 5.8 23 4.7 22.2 4.137l-0.763-0.552c-0.307-0.223-0.668-0.339-1.045-0.339 c-0.573 0-1.114 0.275-1.448 0.738L15.44 8.826z"/></g><g><path fill="#565F73" d="M9.72 20.878c-0.112 0-0.224-0.036-0.317-0.106c-0.167-0.126-0.243-0.339-0.195-0.542l1.361-5.674 c0.016-0.066 0.045-0.129 0.085-0.186l3.922-5.414c0.17-0.235 0.499-0.288 0.734-0.118c0.234 0.2 0.3 0.5 0.1 0.7 l-3.86 5.329l-1.056 4.4l4.023-2.264l3.854-5.321c0.171-0.235 0.499-0.288 0.734-0.118s0.288 0.5 0.1 0.734l-3.922 5.4 c-0.045 0.061-0.103 0.112-0.168 0.15l-5.174 2.911C9.897 20.9 9.8 20.9 9.7 20.878z"/></g><g><path fill="#565F73" d="M14.817 17.963c-0.107 0-0.215-0.033-0.309-0.1l-3.605-2.611c-0.235-0.17-0.288-0.499-0.117-0.734 c0.17-0.234 0.499-0.288 0.734-0.117l3.605 2.61c0.234 0.2 0.3 0.5 0.1 0.734C15.14 17.9 15 18 14.8 17.963z"/></g><g><path fill="#565F73" d="M21.755 14.894c-0.396 0-0.775-0.123-1.098-0.356c-0.405-0.293-0.672-0.727-0.752-1.222 c-0.078-0.494 0.039-0.99 0.333-1.395c0.352-0.485 0.92-0.775 1.519-0.775c0.397 0 0.8 0.1 1.1 0.4 c0.405 0.3 0.7 0.7 0.8 1.222c0.08 0.494-0.038 0.99-0.332 1.395C22.923 14.6 22.4 14.9 21.8 14.894z M21.757 12.197c-0.263 0-0.513 0.128-0.667 0.341c-0.129 0.178-0.181 0.395-0.146 0.612c0.034 0.2 0.2 0.4 0.3 0.5 c0.142 0.1 0.3 0.2 0.5 0.157c0.264 0 0.514-0.128 0.668-0.341c0.129-0.178 0.181-0.395 0.146-0.612 c-0.034-0.217-0.151-0.407-0.33-0.537C22.098 12.3 21.9 12.2 21.8 12.197z"/></g><g><path fill="#565F73" d="M22.428 12.13c-0.151 0-0.301-0.064-0.404-0.188c-0.186-0.223-0.156-0.554 0.066-0.741 c0.464-0.388 0.774-0.704 1.525-1.467c0.171-0.173 0.362-0.368 0.583-0.59c0.723-0.731 0.856-1.104 0.841-1.287 c-0.003-0.049-0.016-0.197-0.339-0.432l-1.225-0.886c-0.234-0.17-0.288-0.5-0.116-0.734c0.17-0.235 0.498-0.288 0.733-0.118 l1.224 0.887c0.474 0.3 0.7 0.7 0.8 1.196c0.05 0.612-0.303 1.263-1.144 2.113c-0.218 0.222-0.409 0.416-0.579 0.6 c-0.754 0.767-1.098 1.116-1.602 1.537C22.667 12.1 22.5 12.1 22.4 12.13z"/></g></g><g><path fill="#565F73" d="M8.062 16.767H3.505c-0.291 0-0.526-0.235-0.526-0.527c0-0.29 0.235-0.524 0.526-0.524h4.556 c0.291 0 0.5 0.2 0.5 0.524C8.587 16.5 8.4 16.8 8.1 16.767z"/></g><g><path fill="#565F73" d="M7.945 19.278H3.505c-0.291 0-0.526-0.235-0.526-0.526c0-0.29 0.235-0.525 0.526-0.525h4.439 c0.29 0 0.5 0.2 0.5 0.525C8.47 19 8.2 19.3 7.9 19.278z"/></g></g></symbol><symbol viewBox="0 0 352 448" id="i-phone"><title>phone</title><path d="M352 326q0 6.75-2.5 17.625t-5.25 17.125q-5.25 12.5-30.5 26.5-23.5 12.75-46.5 12.75-6.75 0-13.125-0.875t-14.375-3.125-11.875-3.625-13.875-5.125-12.25-4.5q-24.5-8.75-43.75-20.75-32-19.75-66.125-53.875t-53.875-66.125q-12-19.25-20.75-43.75-0.75-2.25-4.5-12.25t-5.125-13.875-3.625-11.875-3.125-14.375-0.875-13.125q0-23 12.75-46.5 14-25.25 26.5-30.5 6.25-2.75 17.125-5.25t17.625-2.5q3.5 0 5.25 0.75 4.5 1.5 13.25 19 2.75 4.75 7.5 13.5t8.75 15.875 7.75 13.375q0.75 1 4.375 6.25t5.375 8.875 1.75 7.125q0 5-7.125 12.5t-15.5 13.75-15.5 13.25-7.125 11.5q0 2.25 1.25 5.625t2.125 5.125 3.5 6 2.875 4.75q19 34.25 43.5 58.75t58.75 43.5q0.5 0.25 4.75 2.875t6 3.5 5.125 2.125 5.625 1.25q4.5 0 11.5-7.125t13.25-15.5 13.75-15.5 12.5-7.125q3.5 0 7.125 1.75t8.875 5.375 6.25 4.375q6.25 3.75 13.375 7.75t15.875 8.75 13.5 7.5q17.5 8.75 19 13.25 0.75 1.75 0.75 5.25z"/></symbol><symbol viewBox="0 0 1792 1792" id="i-plus-square"><title>plus-square</title><path d="M1408 960v-128q0-26-19-45t-45-19h-320v-320q0-26-19-45t-45-19h-128q-26 0-45 19t-19 45v320h-320q-26 0-45 19t-19 45v128q0 26 19 45t45 19h320v320q0 26 19 45t45 19h128q26 0 45-19t19-45v-320h320q26 0 45-19t19-45zm256-544v960q0 119-84.5 203.5t-203.5 84.5h-960q-119 0-203.5-84.5t-84.5-203.5v-960q0-119 84.5-203.5t203.5-84.5h960q119 0 203.5 84.5t84.5 203.5z"/></symbol><symbol viewBox="0 0 416 448" id="i-print"><title>print</title><path d="M96 384h224v-64h-224v64zM96 224h224v-96h-40q-10 0-17-7t-7-17v-40h-160v160zM384 240q0-6.5-4.75-11.25t-11.25-4.75-11.25 4.75-4.75 11.25 4.75 11.25 11.25 4.75 11.25-4.75 4.75-11.25zM416 240v104q0 3.25-2.375 5.625t-5.625 2.375h-56v40q0 10-7 17t-17 7h-240q-10 0-17-7t-7-17v-40h-56q-3.25 0-5.625-2.375t-2.375-5.625v-104q0-19.75 14.125-33.875t33.875-14.125h16v-136q0-10 7-17t17-7h168q10 0 22 5t19 12l38 38q7 7 12 19t5 22v64h16q19.75 0 33.875 14.125t14.125 33.875z"/></symbol><symbol viewBox="0 0 384 448" id="i-refresh"><title>refresh</title><path d="M377.75 264q0 1.25-0.25 1.75-16 67-67 108.625t-119.5 41.625q-36.5 0-70.625-13.75t-60.875-39.25l-32.25 32.25q-4.75 4.75-11.25 4.75t-11.25-4.75-4.75-11.25v-112q0-6.5 4.75-11.25t11.25-4.75h112q6.5 0 11.25 4.75t4.75 11.25-4.75 11.25l-34.25 34.25q17.75 16.5 40.25 25.5t46.75 9q33.5 0 62.5-16.25t46.5-44.75q2.75-4.25 13.25-29.25 2-5.75 7.5-5.75h48q3.25 0 5.625 2.375t2.375 5.625zM384 64v112q0 6.5-4.75 11.25t-11.25 4.75h-112q-6.5 0-11.25-4.75t-4.75-11.25 4.75-11.25l34.5-34.5q-37-34.25-87.25-34.25-33.5 0-62.5 16.25t-46.5 44.75q-2.75 4.25-13.25 29.25-2 5.75-7.5 5.75h-49.75q-3.25 0-5.625-2.375t-2.375-5.625v-1.75q16.25-67 67.5-108.625t120-41.625q36.5 0 71 13.875t61.25 39.125l32.5-32.25q4.75-4.75 11.25-4.75t11.25 4.75 4.75 11.25z"/></symbol><symbol viewBox="0 0 448 448" id="i-reply"><title>reply</title><path d="M448 280q0 41.5-31.75 112.75-0.75 1.75-2.625 6t-3.375 7.5-3.25 5.5q-3 4.25-7 4.25-3.75 0-5.875-2.5t-2.125-6.25q0-2.25 0.625-6.625t0.625-5.875q1.25-17 1.25-30.75 0-25.25-4.375-45.25t-12.125-34.625-20-25.25-26.375-17.375-33.25-10.625-38.5-5.375-43.875-1.5h-56v64q0 6.5-4.75 11.25t-11.25 4.75-11.25-4.75l-128-128q-4.75-4.75-4.75-11.25t4.75-11.25l128-128q4.75-4.75 11.25-4.75t11.25 4.75 4.75 11.25v64h56q178.25 0 218.75 100.75 13.25 33.5 13.25 83.25z"/></symbol><symbol viewBox="0 0 1792 1792" id="i-search"><title>search</title><path d="M1216 832q0-185-131.5-316.5t-316.5-131.5-316.5 131.5-131.5 316.5 131.5 316.5 316.5 131.5 316.5-131.5 131.5-316.5zm512 832q0 52-38 90t-90 38q-54 0-90-38l-343-342q-179 124-399 124-143 0-273.5-55.5t-225-150-150-225-55.5-273.5 55.5-273.5 150-225 225-150 273.5-55.5 273.5 55.5 225 150 150 225 55.5 273.5q0 220-124 399l343 343q37 37 37 90z"/></symbol><symbol viewBox="0 0 1792 1792" id="i-share"><title>share</title><path d="M1792 640q0 26-19 45l-512 512q-19 19-45 19t-45-19-19-45v-256h-224q-98 0-175.5 6t-154 21.5-133 42.5-105.5 69.5-80 101-48.5 138.5-17.5 181q0 55 5 123 0 6 2.5 23.5t2.5 26.5q0 15-8.5 25t-23.5 10q-16 0-28-17-7-9-13-22t-13.5-30-10.5-24q-127-285-127-451 0-199 53-333 162-403 875-403h224v-256q0-26 19-45t45-19 45 19l512 512q19 19 19 45z"/></symbol><symbol viewBox="0 0 1792 1792" id="i-times-circle"><title>times-circle</title><path d="M1277 1122q0-26-19-45l-181-181 181-181q19-19 19-45 0-27-19-46l-90-90q-19-19-46-19-26 0-45 19l-181 181-181-181q-19-19-45-19-27 0-46 19l-90 90q-19 19-19 46 0 26 19 45l181 181-181 181q-19 19-19 45 0 27 19 46l90 90q19 19 46 19 26 0 45-19l181-181 181 181q19 19 45 19 27 0 46-19l90-90q19-19 19-46zm387-226q0 209-103 385.5t-279.5 279.5-385.5 103-385.5-103-279.5-279.5-103-385.5 103-385.5 279.5-279.5 385.5-103 385.5 103 279.5 279.5 103 385.5z"/></symbol><symbol viewBox="0 0 20 20" id="i-trend-down"><title>trend-down</title><g><path fill="#C80529" d="M3.159 3.141c-3.758 3.758-3.758 9.9 0 13.609c3.758 3.8 9.9 3.8 13.6 0 c3.758-3.758 3.758-9.851 0-13.609C13.01-0.617 6.917-0.616 3.2 3.141z M13.928 14.846c-0.015 0.002-0.031 0.006-0.046 0 c-0.028 0.004-0.058 0.004-0.088 0.004c-0.001 0-0.002 0-0.003 0h-6.8c-0.599 0-1.083-0.483-1.083-1.082s0.484-1.082 1.082-1.082 h4.188L5.37 6.884c-0.423-0.423-0.423-1.108 0-1.532c0.422-0.422 1.109-0.422 1.5 0l5.807 5.807V6.973 c0-0.598 0.483-1.083 1.083-1.083c0.598 0 1.1 0.5 1.1 1.083v6.8c0 0.033-0.002 0.062-0.005 0.1 c0 0.013-0.003 0.026-0.003 0.038c-0.002 0.01-0.003 0.021-0.005 0.029c-0.033 0.223-0.133 0.436-0.303 0.6 c-0.172 0.171-0.385 0.271-0.606 0.305C13.943 14.8 13.9 14.8 13.9 14.846z"/></g></symbol><symbol viewBox="0 0 20 20" id="i-trend-up"><title>trend-up</title><g><path fill="#3C763D" d="M3.158 16.75c3.758 3.8 9.9 3.8 13.6 0c3.756-3.758 3.756-9.851 0-13.609 C13.009-0.617 6.917-0.616 3.2 3.142C-0.6 6.899-0.599 13 3.2 16.75z M14.863 5.981c0.002 0 0 0 0 0 c0.003 0 0 0.1 0 0.088c0 0 0 0 0 0.003v6.8c0 0.6-0.484 1.083-1.083 1.083s-1.082-0.483-1.082-1.082V8.731 l-5.807 5.807c-0.423 0.423-1.108 0.423-1.532 0c-0.422-0.422-0.422-1.108 0-1.531L11.177 7.2H6.99 c-0.598 0-1.083-0.484-1.083-1.083c0-0.597 0.485-1.083 1.083-1.083h6.801c0.033 0 0.1 0 0.1 0 c0.014 0 0 0 0 0.003c0.011 0 0 0 0 0.005c0.222 0 0.4 0.1 0.6 0.3 c0.17 0.2 0.3 0.4 0.3 0.606C14.861 6 14.9 6 14.9 5.981z"/></g></symbol><symbol viewBox="0 0 416 448" id="i-twitter"><title>twitter</title><path d="M405 102q-16.75 24.5-40.5 41.75 0.25 3.5 0.25 10.5 0 32.5-9.5 64.875t-28.875 62.125-46.125 52.625-64.5 36.5-80.75 13.625q-67.75 0-124-36.25 8.75 1 19.5 1 56.25 0 100.25-34.5-26.25-0.5-47-16.125t-28.5-39.875q8.25 1.25 15.25 1.25 10.75 0 21.25-2.75-28-5.75-46.375-27.875t-18.375-51.375v-1q17 9.5 36.5 10.25-16.5-11-26.25-28.75t-9.75-38.5q0-22 11-40.75 30.25 37.25 73.625 59.625t92.875 24.875q-2-9.5-2-18.5 0-33.5 23.625-57.125t57.125-23.625q35 0 59 25.5 27.25-5.25 51.25-19.5-9.25 28.75-35.5 44.5 23.25-2.5 46.5-12.5z"/></symbol><symbol viewBox="0 0 1792 1792" id="i-user"><title>user</title><path d="M1600 1405q0 120-73 189.5t-194 69.5h-874q-121 0-194-69.5t-73-189.5q0-53 3.5-103.5t14-109 26.5-108.5 43-97.5 62-81 85.5-53.5 111.5-20q9 0 42 21.5t74.5 48 108 48 133.5 21.5 133.5-21.5 108-48 74.5-48 42-21.5q61 0 111.5 20t85.5 53.5 62 81 43 97.5 26.5 108.5 14 109 3.5 103.5zm-320-893q0 159-112.5 271.5t-271.5 112.5-271.5-112.5-112.5-271.5 112.5-271.5 271.5-112.5 271.5 112.5 112.5 271.5z"/></symbol><symbol viewBox="0 0 1792 1792" id="i-warning"><title>warning</title><path d="M1024 1375v-190q0-14-9.5-23.5t-22.5-9.5h-192q-13 0-22.5 9.5t-9.5 23.5v190q0 14 9.5 23.5t22.5 9.5h192q13 0 22.5-9.5t9.5-23.5zm-2-374l18-459q0-12-10-19-13-11-24-11h-220q-11 0-24 11-10 7-10 21l17 457q0 10 10 16.5t24 6.5h185q14 0 23.5-6.5t10.5-16.5zm-14-934l768 1408q35 63-2 126-17 29-46.5 46t-63.5 17h-1536q-34 0-63.5-17t-46.5-46q-37-63-2-126l768-1408q17-31 47-49t65-18 65 18 47 49z"/></symbol></svg>